<mxfile host="app.diagrams.net" modified="2023-04-18T03:48:40.779Z" agent="5.0 (Macintosh; Intel Mac OS X 10_15_7) AppleWebKit/537.36 (KHTML, like Gecko) Chrome/112.0.0.0 Safari/537.36" etag="_P3xtmMEk5xfJi63fzpe" version="21.0.8" type="github">
  <diagram name="第 1 页" id="x04ZyFzMIuUzOrs1hHKh">
    <mxGraphModel dx="1296" dy="700" grid="1" gridSize="10" guides="1" tooltips="1" connect="1" arrows="1" fold="1" page="1" pageScale="1" pageWidth="827" pageHeight="1169" math="0" shadow="0">
      <root>
        <mxCell id="0" />
        <mxCell id="1" parent="0" />
        <mxCell id="ju7y746lDAIFxifA5u6g-1" value="&lt;font style=&quot;font-size: 14px;&quot;&gt;product&lt;/font&gt;" style="rounded=0;whiteSpace=wrap;html=1;" vertex="1" parent="1">
          <mxGeometry x="170" y="115" width="90" height="50" as="geometry" />
        </mxCell>
        <mxCell id="ju7y746lDAIFxifA5u6g-3" value="MQLib" style="rounded=0;whiteSpace=wrap;html=1;" vertex="1" parent="1">
          <mxGeometry x="260" y="115" width="50" height="50" as="geometry" />
        </mxCell>
        <mxCell id="ju7y746lDAIFxifA5u6g-4" value="&lt;font style=&quot;font-size: 14px;&quot;&gt;product&lt;/font&gt;" style="rounded=0;whiteSpace=wrap;html=1;" vertex="1" parent="1">
          <mxGeometry x="170" y="325" width="90" height="50" as="geometry" />
        </mxCell>
        <mxCell id="ju7y746lDAIFxifA5u6g-5" value="MQLib" style="rounded=0;whiteSpace=wrap;html=1;" vertex="1" parent="1">
          <mxGeometry x="260" y="325" width="50" height="50" as="geometry" />
        </mxCell>
        <mxCell id="ju7y746lDAIFxifA5u6g-6" value="" style="rounded=0;whiteSpace=wrap;html=1;" vertex="1" parent="1">
          <mxGeometry x="440" y="190" width="290" height="110" as="geometry" />
        </mxCell>
        <mxCell id="ju7y746lDAIFxifA5u6g-7" value="" style="endArrow=classic;html=1;rounded=0;exitX=1;exitY=0.5;exitDx=0;exitDy=0;entryX=0;entryY=0;entryDx=0;entryDy=0;" edge="1" parent="1" source="ju7y746lDAIFxifA5u6g-3" target="ju7y746lDAIFxifA5u6g-6">
          <mxGeometry width="50" height="50" relative="1" as="geometry">
            <mxPoint x="280" y="180" as="sourcePoint" />
            <mxPoint x="330" y="130" as="targetPoint" />
          </mxGeometry>
        </mxCell>
        <mxCell id="ju7y746lDAIFxifA5u6g-10" value="MSG1&lt;br&gt;PFB=Name1" style="edgeLabel;html=1;align=center;verticalAlign=middle;resizable=0;points=[];" vertex="1" connectable="0" parent="ju7y746lDAIFxifA5u6g-7">
          <mxGeometry x="-0.4388" relative="1" as="geometry">
            <mxPoint as="offset" />
          </mxGeometry>
        </mxCell>
        <mxCell id="ju7y746lDAIFxifA5u6g-8" value="" style="endArrow=classic;html=1;rounded=0;exitX=1;exitY=0;exitDx=0;exitDy=0;entryX=0;entryY=1;entryDx=0;entryDy=0;fillColor=#f8cecc;strokeColor=#b85450;" edge="1" parent="1" source="ju7y746lDAIFxifA5u6g-5" target="ju7y746lDAIFxifA5u6g-6">
          <mxGeometry width="50" height="50" relative="1" as="geometry">
            <mxPoint x="260" y="370" as="sourcePoint" />
            <mxPoint x="310" y="320" as="targetPoint" />
          </mxGeometry>
        </mxCell>
        <mxCell id="ju7y746lDAIFxifA5u6g-9" value="正常请求" style="edgeLabel;html=1;align=center;verticalAlign=middle;resizable=0;points=[];" vertex="1" connectable="0" parent="ju7y746lDAIFxifA5u6g-8">
          <mxGeometry x="-0.3862" y="-4" relative="1" as="geometry">
            <mxPoint as="offset" />
          </mxGeometry>
        </mxCell>
        <mxCell id="ju7y746lDAIFxifA5u6g-11" value="PFB&amp;nbsp; MSG" style="rounded=0;whiteSpace=wrap;html=1;" vertex="1" parent="1">
          <mxGeometry x="460" y="230" width="70" height="60" as="geometry" />
        </mxCell>
        <mxCell id="ju7y746lDAIFxifA5u6g-12" value="&lt;span style=&quot;font-weight: normal;&quot;&gt;PFB&amp;nbsp; MSG&lt;/span&gt;" style="rounded=0;whiteSpace=wrap;html=1;fontStyle=1" vertex="1" parent="1">
          <mxGeometry x="560" y="230" width="70" height="60" as="geometry" />
        </mxCell>
        <mxCell id="ju7y746lDAIFxifA5u6g-13" value="正常消息" style="rounded=0;whiteSpace=wrap;html=1;" vertex="1" parent="1">
          <mxGeometry x="650" y="230" width="70" height="60" as="geometry" />
        </mxCell>
        <mxCell id="ju7y746lDAIFxifA5u6g-15" value="Kafka 集群" style="text;html=1;strokeColor=none;fillColor=none;align=center;verticalAlign=middle;whiteSpace=wrap;rounded=0;" vertex="1" parent="1">
          <mxGeometry x="550" y="190" width="90" height="30" as="geometry" />
        </mxCell>
        <mxCell id="ju7y746lDAIFxifA5u6g-16" value="&lt;span style=&quot;font-size: 14px;&quot;&gt;ConsumerGroup1&lt;br&gt;&lt;div style=&quot;text-align: left;&quot;&gt;&lt;span style=&quot;background-color: initial;&quot;&gt;_PFB_Name1&lt;/span&gt;&lt;/div&gt;&lt;/span&gt;" style="rounded=0;whiteSpace=wrap;html=1;" vertex="1" parent="1">
          <mxGeometry x="790" y="110" width="140" height="50" as="geometry" />
        </mxCell>
        <mxCell id="ju7y746lDAIFxifA5u6g-17" value="MQLib" style="rounded=0;whiteSpace=wrap;html=1;" vertex="1" parent="1">
          <mxGeometry x="920" y="110" width="50" height="50" as="geometry" />
        </mxCell>
        <mxCell id="ju7y746lDAIFxifA5u6g-18" value="&lt;span style=&quot;font-size: 14px;&quot;&gt;ConsumerGroup2&lt;/span&gt;" style="rounded=0;whiteSpace=wrap;html=1;" vertex="1" parent="1">
          <mxGeometry x="790" y="300" width="130" height="50" as="geometry" />
        </mxCell>
        <mxCell id="ju7y746lDAIFxifA5u6g-19" value="MQLib" style="rounded=0;whiteSpace=wrap;html=1;" vertex="1" parent="1">
          <mxGeometry x="920" y="300" width="50" height="50" as="geometry" />
        </mxCell>
        <mxCell id="ju7y746lDAIFxifA5u6g-20" value="&lt;span style=&quot;font-size: 14px;&quot;&gt;ConsumerGroup1&lt;/span&gt;" style="rounded=0;whiteSpace=wrap;html=1;" vertex="1" parent="1">
          <mxGeometry x="790" y="200" width="140" height="50" as="geometry" />
        </mxCell>
        <mxCell id="ju7y746lDAIFxifA5u6g-21" value="MQLib" style="rounded=0;whiteSpace=wrap;html=1;" vertex="1" parent="1">
          <mxGeometry x="920" y="200" width="50" height="50" as="geometry" />
        </mxCell>
        <mxCell id="ju7y746lDAIFxifA5u6g-23" value="" style="endArrow=classic;html=1;rounded=0;exitX=1;exitY=0;exitDx=0;exitDy=0;" edge="1" parent="1" source="ju7y746lDAIFxifA5u6g-6">
          <mxGeometry width="50" height="50" relative="1" as="geometry">
            <mxPoint x="740" y="200" as="sourcePoint" />
            <mxPoint x="790" y="140" as="targetPoint" />
          </mxGeometry>
        </mxCell>
        <mxCell id="ju7y746lDAIFxifA5u6g-24" value="" style="endArrow=classic;html=1;rounded=0;entryX=0;entryY=0.5;entryDx=0;entryDy=0;exitX=1;exitY=0;exitDx=0;exitDy=0;" edge="1" parent="1" source="ju7y746lDAIFxifA5u6g-6" target="ju7y746lDAIFxifA5u6g-20">
          <mxGeometry width="50" height="50" relative="1" as="geometry">
            <mxPoint x="740" y="240" as="sourcePoint" />
            <mxPoint x="780" y="230" as="targetPoint" />
          </mxGeometry>
        </mxCell>
        <mxCell id="ju7y746lDAIFxifA5u6g-25" value="" style="endArrow=classic;html=1;rounded=1;exitX=1;exitY=0;exitDx=0;exitDy=0;" edge="1" parent="1" source="ju7y746lDAIFxifA5u6g-6">
          <mxGeometry width="50" height="50" relative="1" as="geometry">
            <mxPoint x="730" y="218" as="sourcePoint" />
            <mxPoint x="780" y="330" as="targetPoint" />
          </mxGeometry>
        </mxCell>
        <mxCell id="ju7y746lDAIFxifA5u6g-26" value="" style="endArrow=classic;html=1;rounded=0;fillColor=#f8cecc;strokeColor=#b85450;" edge="1" parent="1">
          <mxGeometry width="50" height="50" relative="1" as="geometry">
            <mxPoint x="730" y="300" as="sourcePoint" />
            <mxPoint x="780" y="160" as="targetPoint" />
          </mxGeometry>
        </mxCell>
        <mxCell id="ju7y746lDAIFxifA5u6g-27" value="" style="endArrow=classic;html=1;rounded=0;fillColor=#f8cecc;strokeColor=#b85450;" edge="1" parent="1">
          <mxGeometry width="50" height="50" relative="1" as="geometry">
            <mxPoint x="730" y="300" as="sourcePoint" />
            <mxPoint x="780" y="250" as="targetPoint" />
          </mxGeometry>
        </mxCell>
        <mxCell id="ju7y746lDAIFxifA5u6g-28" value="" style="endArrow=classic;html=1;rounded=0;exitX=1;exitY=1;exitDx=0;exitDy=0;fillColor=#f8cecc;strokeColor=#b85450;" edge="1" parent="1" source="ju7y746lDAIFxifA5u6g-6">
          <mxGeometry width="50" height="50" relative="1" as="geometry">
            <mxPoint x="700" y="370" as="sourcePoint" />
            <mxPoint x="770" y="330" as="targetPoint" />
          </mxGeometry>
        </mxCell>
        <mxCell id="ju7y746lDAIFxifA5u6g-33" value="" style="endArrow=none;dashed=1;html=1;rounded=0;" edge="1" parent="1">
          <mxGeometry width="50" height="50" relative="1" as="geometry">
            <mxPoint x="139.5" y="750" as="sourcePoint" />
            <mxPoint x="139.5" y="520" as="targetPoint" />
          </mxGeometry>
        </mxCell>
        <mxCell id="ju7y746lDAIFxifA5u6g-34" value="HTTP&lt;br&gt;Service" style="shape=umlActor;verticalLabelPosition=bottom;verticalAlign=top;html=1;outlineConnect=0;" vertex="1" parent="1">
          <mxGeometry x="130" y="440" width="20" height="40" as="geometry" />
        </mxCell>
        <mxCell id="ju7y746lDAIFxifA5u6g-39" value="" style="ellipse;whiteSpace=wrap;html=1;aspect=fixed;" vertex="1" parent="1">
          <mxGeometry x="260" y="440" width="50" height="50" as="geometry" />
        </mxCell>
        <mxCell id="ju7y746lDAIFxifA5u6g-40" value="" style="rounded=0;whiteSpace=wrap;html=1;" vertex="1" parent="1">
          <mxGeometry x="280" y="520" width="10" height="230" as="geometry" />
        </mxCell>
        <mxCell id="ju7y746lDAIFxifA5u6g-42" value="" style="endArrow=none;dashed=1;html=1;rounded=0;exitX=0.5;exitY=0;exitDx=0;exitDy=0;entryX=0.5;entryY=1;entryDx=0;entryDy=0;" edge="1" parent="1" source="ju7y746lDAIFxifA5u6g-40" target="ju7y746lDAIFxifA5u6g-39">
          <mxGeometry width="50" height="50" relative="1" as="geometry">
            <mxPoint x="240" y="540" as="sourcePoint" />
            <mxPoint x="290" y="490" as="targetPoint" />
          </mxGeometry>
        </mxCell>
        <mxCell id="ju7y746lDAIFxifA5u6g-44" value="" style="endArrow=classic;html=1;rounded=0;entryX=-0.3;entryY=0.222;entryDx=0;entryDy=0;entryPerimeter=0;" edge="1" parent="1" target="ju7y746lDAIFxifA5u6g-40">
          <mxGeometry width="50" height="50" relative="1" as="geometry">
            <mxPoint x="140" y="570" as="sourcePoint" />
            <mxPoint x="270" y="570" as="targetPoint" />
          </mxGeometry>
        </mxCell>
        <mxCell id="ju7y746lDAIFxifA5u6g-45" value="" style="endArrow=classic;html=1;rounded=0;exitX=-0.4;exitY=0.913;exitDx=0;exitDy=0;exitPerimeter=0;dashed=1;" edge="1" parent="1" source="ju7y746lDAIFxifA5u6g-40">
          <mxGeometry width="50" height="50" relative="1" as="geometry">
            <mxPoint x="190" y="730" as="sourcePoint" />
            <mxPoint x="140" y="730" as="targetPoint" />
          </mxGeometry>
        </mxCell>
        <mxCell id="ju7y746lDAIFxifA5u6g-46" value="RPC Request" style="text;html=1;align=center;verticalAlign=middle;resizable=0;points=[];autosize=1;strokeColor=none;fillColor=none;" vertex="1" parent="1">
          <mxGeometry x="160" y="540" width="100" height="30" as="geometry" />
        </mxCell>
        <mxCell id="ju7y746lDAIFxifA5u6g-47" value="RPC Response" style="text;html=1;align=center;verticalAlign=middle;resizable=0;points=[];autosize=1;strokeColor=none;fillColor=none;" vertex="1" parent="1">
          <mxGeometry x="155" y="705" width="110" height="30" as="geometry" />
        </mxCell>
        <mxCell id="ju7y746lDAIFxifA5u6g-49" value="" style="ellipse;whiteSpace=wrap;html=1;aspect=fixed;" vertex="1" parent="1">
          <mxGeometry x="500" y="440" width="50" height="50" as="geometry" />
        </mxCell>
        <mxCell id="ju7y746lDAIFxifA5u6g-50" value="" style="ellipse;whiteSpace=wrap;html=1;aspect=fixed;" vertex="1" parent="1">
          <mxGeometry x="660" y="440" width="50" height="50" as="geometry" />
        </mxCell>
        <mxCell id="ju7y746lDAIFxifA5u6g-51" value="" style="endArrow=none;dashed=1;html=1;rounded=0;entryX=0.5;entryY=1;entryDx=0;entryDy=0;" edge="1" parent="1" source="ju7y746lDAIFxifA5u6g-66" target="ju7y746lDAIFxifA5u6g-50">
          <mxGeometry width="50" height="50" relative="1" as="geometry">
            <mxPoint x="685" y="760" as="sourcePoint" />
            <mxPoint x="680" y="490" as="targetPoint" />
          </mxGeometry>
        </mxCell>
        <mxCell id="ju7y746lDAIFxifA5u6g-52" value="" style="endArrow=none;dashed=1;html=1;rounded=0;entryX=0.5;entryY=1;entryDx=0;entryDy=0;" edge="1" parent="1" source="ju7y746lDAIFxifA5u6g-53" target="ju7y746lDAIFxifA5u6g-49">
          <mxGeometry width="50" height="50" relative="1" as="geometry">
            <mxPoint x="525" y="750" as="sourcePoint" />
            <mxPoint x="530" y="490" as="targetPoint" />
          </mxGeometry>
        </mxCell>
        <mxCell id="ju7y746lDAIFxifA5u6g-54" value="" style="endArrow=none;dashed=1;html=1;rounded=0;entryX=0.5;entryY=1;entryDx=0;entryDy=0;" edge="1" parent="1" target="ju7y746lDAIFxifA5u6g-53">
          <mxGeometry width="50" height="50" relative="1" as="geometry">
            <mxPoint x="525" y="750" as="sourcePoint" />
            <mxPoint x="525" y="490" as="targetPoint" />
          </mxGeometry>
        </mxCell>
        <mxCell id="ju7y746lDAIFxifA5u6g-53" value="" style="rounded=0;whiteSpace=wrap;html=1;" vertex="1" parent="1">
          <mxGeometry x="517.5" y="525" width="15" height="105" as="geometry" />
        </mxCell>
        <mxCell id="ju7y746lDAIFxifA5u6g-56" value="" style="endArrow=none;dashed=1;html=1;rounded=0;entryX=0.5;entryY=1;entryDx=0;entryDy=0;" edge="1" parent="1" target="ju7y746lDAIFxifA5u6g-55">
          <mxGeometry width="50" height="50" relative="1" as="geometry">
            <mxPoint x="685" y="760" as="sourcePoint" />
            <mxPoint x="685" y="490" as="targetPoint" />
          </mxGeometry>
        </mxCell>
        <mxCell id="ju7y746lDAIFxifA5u6g-55" value="" style="rounded=0;whiteSpace=wrap;html=1;" vertex="1" parent="1">
          <mxGeometry x="677.5" y="675" width="15" height="60" as="geometry" />
        </mxCell>
        <mxCell id="ju7y746lDAIFxifA5u6g-57" value="" style="endArrow=classic;html=1;rounded=0;entryX=-0.167;entryY=0.629;entryDx=0;entryDy=0;entryPerimeter=0;" edge="1" parent="1" target="ju7y746lDAIFxifA5u6g-53">
          <mxGeometry width="50" height="50" relative="1" as="geometry">
            <mxPoint x="290" y="590" as="sourcePoint" />
            <mxPoint x="427" y="591" as="targetPoint" />
          </mxGeometry>
        </mxCell>
        <mxCell id="ju7y746lDAIFxifA5u6g-58" value="" style="endArrow=classic;html=1;rounded=0;dashed=1;" edge="1" parent="1">
          <mxGeometry width="50" height="50" relative="1" as="geometry">
            <mxPoint x="510" y="610" as="sourcePoint" />
            <mxPoint x="300" y="610" as="targetPoint" />
          </mxGeometry>
        </mxCell>
        <mxCell id="ju7y746lDAIFxifA5u6g-59" value="" style="endArrow=classic;html=1;rounded=0;" edge="1" parent="1">
          <mxGeometry width="50" height="50" relative="1" as="geometry">
            <mxPoint x="292.5" y="690" as="sourcePoint" />
            <mxPoint x="670" y="690" as="targetPoint" />
          </mxGeometry>
        </mxCell>
        <mxCell id="ju7y746lDAIFxifA5u6g-60" value="" style="endArrow=classic;html=1;rounded=0;dashed=1;" edge="1" parent="1">
          <mxGeometry width="50" height="50" relative="1" as="geometry">
            <mxPoint x="660" y="720" as="sourcePoint" />
            <mxPoint x="300" y="719.5" as="targetPoint" />
          </mxGeometry>
        </mxCell>
        <mxCell id="ju7y746lDAIFxifA5u6g-61" value="根据服务名获取节点列表" style="text;html=1;align=center;verticalAlign=middle;resizable=0;points=[];autosize=1;strokeColor=none;fillColor=none;" vertex="1" parent="1">
          <mxGeometry x="320" y="562.5" width="160" height="30" as="geometry" />
        </mxCell>
        <mxCell id="ju7y746lDAIFxifA5u6g-62" value="nodes" style="text;html=1;align=center;verticalAlign=middle;resizable=0;points=[];autosize=1;strokeColor=none;fillColor=none;" vertex="1" parent="1">
          <mxGeometry x="360" y="615" width="60" height="30" as="geometry" />
        </mxCell>
        <mxCell id="ju7y746lDAIFxifA5u6g-63" value="请求目标节点接口" style="text;html=1;align=center;verticalAlign=middle;resizable=0;points=[];autosize=1;strokeColor=none;fillColor=none;" vertex="1" parent="1">
          <mxGeometry x="360" y="665" width="120" height="30" as="geometry" />
        </mxCell>
        <mxCell id="ju7y746lDAIFxifA5u6g-64" value="RPC Response" style="text;html=1;align=center;verticalAlign=middle;resizable=0;points=[];autosize=1;strokeColor=none;fillColor=none;" vertex="1" parent="1">
          <mxGeometry x="345" y="695" width="110" height="30" as="geometry" />
        </mxCell>
        <mxCell id="ju7y746lDAIFxifA5u6g-65" value="Naming Service" style="text;html=1;align=center;verticalAlign=middle;resizable=0;points=[];autosize=1;strokeColor=none;fillColor=none;" vertex="1" parent="1">
          <mxGeometry x="470" y="490" width="110" height="30" as="geometry" />
        </mxCell>
        <mxCell id="ju7y746lDAIFxifA5u6g-67" value="" style="endArrow=none;dashed=1;html=1;rounded=0;entryX=0.5;entryY=1;entryDx=0;entryDy=0;" edge="1" parent="1" source="ju7y746lDAIFxifA5u6g-55" target="ju7y746lDAIFxifA5u6g-66">
          <mxGeometry width="50" height="50" relative="1" as="geometry">
            <mxPoint x="685" y="675" as="sourcePoint" />
            <mxPoint x="685" y="490" as="targetPoint" />
          </mxGeometry>
        </mxCell>
        <mxCell id="ju7y746lDAIFxifA5u6g-66" value="TCP Service&lt;br&gt;Server" style="text;html=1;align=center;verticalAlign=middle;resizable=0;points=[];autosize=1;strokeColor=none;fillColor=none;" vertex="1" parent="1">
          <mxGeometry x="640" y="490" width="90" height="40" as="geometry" />
        </mxCell>
        <mxCell id="ju7y746lDAIFxifA5u6g-68" value="TCP Service&lt;br&gt;Clinet" style="text;html=1;align=center;verticalAlign=middle;resizable=0;points=[];autosize=1;strokeColor=none;fillColor=none;" vertex="1" parent="1">
          <mxGeometry x="240" y="485" width="90" height="40" as="geometry" />
        </mxCell>
        <mxCell id="ju7y746lDAIFxifA5u6g-71" value="" style="endArrow=classic;html=1;rounded=0;exitX=1;exitY=0.47;exitDx=0;exitDy=0;exitPerimeter=0;" edge="1" parent="1" source="ju7y746lDAIFxifA5u6g-40">
          <mxGeometry width="50" height="50" relative="1" as="geometry">
            <mxPoint x="290" y="655" as="sourcePoint" />
            <mxPoint x="300" y="650" as="targetPoint" />
            <Array as="points">
              <mxPoint x="320" y="628" />
              <mxPoint x="320" y="650" />
            </Array>
          </mxGeometry>
        </mxCell>
      </root>
    </mxGraphModel>
  </diagram>
</mxfile>
